<?xml version="1.0" encoding="UTF-8"?>
<svg id="_レイヤー_2" data-name="レイヤー 2" xmlns="http://www.w3.org/2000/svg" xmlns:xlink="http://www.w3.org/1999/xlink" viewBox="0 0 483.15 483.15">
  <defs>
    <linearGradient id="_名称未設定グラデーション_8" data-name="名称未設定グラデーション 8" x1="0" y1="241.57" x2="483.15" y2="241.57" gradientUnits="userSpaceOnUse">
      <stop offset="0" stop-color="#ff7b54"/>
      <stop offset="1" stop-color="#ffb38a"/>
    </linearGradient>
  </defs>
  <g id="_レイヤー_1-2" data-name="レイヤー 1">
    <path d="M241.57,0C108.16,0,0,108.16,0,241.57c0,133.42,108.16,241.57,241.57,241.57,133.42,0,241.57-108.16,241.57-241.57C483.15,108.16,374.99,0,241.57,0ZM395.42,355.99h-37.38v-136.39c0-21.09-3.36-36.29-10.07-45.6-6.71-9.31-17.19-13.97-31.43-13.97-8.49,0-17.32,2.81-26.5,8.42-9.18,5.62-19.1,14.18-29.78,25.68v161.86h-37.39v-136.39c0-21.09-3.36-36.29-10.06-45.6-6.71-9.31-17.19-13.97-31.43-13.97-8.5,0-17.4,2.81-26.71,8.42-9.31,5.62-19.04,14.18-29.17,25.68v161.86s-37.8,0-37.8,0v-223.07h30.81l3.7,32.46h.82c9.86-10.68,20.6-19.72,32.25-27.11,11.64-7.4,24.03-11.09,37.18-11.09,17.25,0,30.67,3.84,40.26,11.5,9.58,7.67,16.7,18.08,21.36,31.22,11.77-12.59,23.62-22.86,35.53-30.81,11.92-7.94,24.71-11.91,38.41-11.91,22.73,0,39.64,7.47,50.73,22.39,11.09,14.93,16.64,36.63,16.64,65.11v141.32Z" fill="url(#_名称未設定グラデーション_8)"/>
  </g>
</svg>